<svg id="Layer_1" data-name="Layer 1" xmlns="http://www.w3.org/2000/svg" viewBox="0 0 1182.23 1082.39"><style>
  path {
    stroke: #2f9e44;
    fill: #51cf66;
  }
</style><title>1</title><path d="M463.61,856.22c-14.16-8.48-26.19-15.52-38-22.9-3.3-2.06-8.65-3.57-6.14-9.49,2.26-5.35,6.85-8.09,12.25-6.59,17.1,4.74,35.24,11.38,43.74,26.69,15.45,27.84,37,37,67.42,34.15,25-2.3,25.48-1.71,25.43-27,0-12.2-6.19-20.69-14-28.39-18-17.79-35.52-36-50.23-56.73-4.57-6.45-8.6-12.82-10.21-20.66-5.51-26.73-19.94-44.23-48.7-47.26-6.6-.69-11.69-16.34-7.46-21.46,1.95-2.37,4.17-.83,6.34-.43,29.56,5.45,33.68,1.09,26.4-27.76-2-7.9-4.41-15.68-5-23.94-.44-6.56,1.56-8.33,8-6.48,7.42,2.13,10.23,7.47,12.26,14.15a724.48,724.48,0,0,0,52.36,127.11c10.17,19.31,29.67,21.44,40.06,2.59,8.87-16.12,22.33-31.41,17-52.66-3.45-13.77-10.46-26-16-38.74-4.45-10.21.84-11,8.18-12.38,5.38-1,6.72,2.57,8.36,6.14,2.91,6.35,5.33,13,8.81,19,4.9,8.48,12.32,11.5,20.27,4.51,6.28-5.52,10.3-2.28,15.15,1.28,5.34,3.92,9,7.68,6.23,15.49-4.35,12.46-7.43,25.37-10.92,38.12-.89,3.23-3.33,7-.12,9.77,3.56,3,7.56.4,10.8-1.45,15.89-9.06,31.74-18.18,47.38-27.64,18.73-11.33,37.76-21.56,59.85-25,16.88-2.66,30.58-11.1,37.19-27.39,10.34-25.5,21.84-50.55,26.26-78.24,4.34-27.24-5.57-52.26-9.44-78.23-1.08-7.22-4.06-14.18-2.8-21.93C829.65,523.08,837,637,793.41,682.36c17.11-3.71,31.05-7,42.54-16.39,20.77-17.07,40.66-35.17,58.2-55.57,22.33-26,31.15-56.89,31.29-90.67,0-4.67.06-9.36.39-14,.23-3.17-1.18-8.06,4.33-7.71,5.31.34,3.25,5.19,3.66,8.29,7.74,58.36-18.07,103-57.79,142.19-14.31,14.12-27.25,29.53-40.67,47.43,26.27,2.52,50.47,4.85,74.68,7.15,2.71.26,5.5,0,8.14.61,4.49,1,11.71-1.18,11.45,6.51-.29,8.76-7.77,4.41-11.73,4.39-28.33-.19-56.43-.33-84.63-6.55-28.55-6.29-55.13,4.51-79.86,18.9-1.17.68-1.87,2.16-3.13,3.67,8.44,6.31,19.51,5.75,29.49,13.48-18.6-.08-34-2.68-48-10.77-8.14-4.72-14.18-4.37-19.77,3.84-6.35,9.32-16.51,14.18-26,19.33-26.51,14.37-32,34-23.55,69.3,2,8.18,6.54,15.79,10.3,23.47,4.4,9,19,12.45,31.07,7.16a92.13,92.13,0,0,0,26.33-17.15c17.19-16.26,37.72-23.7,60.71-26.77,15-2,29.75-5.89,44.68-8.6,3-.54,7.58-2.76,8.7,2.49.94,4.4,1.95,9.35-4.23,11.69-12.66,4.8-24.51,11.65-38.7,12.11-10.44.34-20.88,1.85-30.87,5.62-7.9,3-14.59,7.49-19.44,14.27-3,4.26-7.77,8.81-4.73,14.62C749,870,755,868.82,760,869c6.72.19,13.57-.3,14.37,9.43.69,8.27-.53,13.36-10.84,12.25-15.33-1.65-30.66-4.22-46.24-.93-5,1-8.48,2.41-11,7-3.92,7.11-7.38,14.64-14.17,19.76-3.39,2.56-2.31,6.39-2.3,9.77.13,49.05.21,98.1.58,147.15.22,30.18,11.73,54.62,35.88,73.75,43.2,34.21,42.89,34.53,98.17,39.83,20.14,1.93,40.23,4.39,60.34,6.69,4.5.52,9.49.06,11.11,6.27,1.26,4.84,5.73,2.94,8.87,3.09,13.6.64,27.22,1,40.82,1.48,7.55.29,13.25,3.74,18.88,13.56H874.61c-2.74,6.73,5.08,7,3.38,12.26-7.34-.66-14.9-1.51-22.48-2-5.64-.34-12.42-4.37-15.54,4.76-.81,2.37-4.08,1.33-6.38.87-5.72-1.15-11.44-2.27-17.19-3.28-3.74-.66-8.36-3.76-11.1-1-3.67,3.75,2.74,7.32,2.31,12.51-4.55,2.15-9.27.2-13.83-1.07q-37.63-10.51-75.22-21.28c-7.75-2.21-15.1-3.32-21.67,3.3-4,4-9.2,2.88-14.34,2.09-14.19-2.15-28-6.53-42.63-6.23-10.1.2-17,4.3-21.56,13.08a32.48,32.48,0,0,1-5.87,8.55c-8.86,8.41-11.85,7.5-15.34-4-.56-1.86-1.23-3.69-1.89-5.51-6.61-18.52-6.61-18.46-26.91-16.73-10.65.91-20.44,4.27-29.89,9.17-5.25,2.72-11.25,5.71-12.6-4.46-1-7.82-7.12-4.85-10.94-3.69-19.35,5.86-38.59,12.09-57.75,18.54-8.17,2.74-16.29,5.35-25,5.45-3.37,0-7.91,1.46-9.53-2.3-1.21-2.8,2.15-5.44,4-7.91,2-2.64,5.57-4.34,5.51-8.86-16.21,0-32.32-.11-48.42,0-7,.07-14,.86-21,1-2.08,0-7.14,1.47-4.92-3.26,4.36-9.28-2.3-7.65-6.95-7.74-17.13-.33-34.26-.32-51.38-.7-5.73-.13-11.65.57-20.08-3.14,15.3-2.09,28.74-1.55,40.3-5.93,41.62-15.8,86-10.42,128.52-18.37,12.58-2.35,23.84-6.9,33.46-15.38,19.85-17.49,40.35-34.36,53.79-57.85,6.3-11,10-22.36,9.63-35.41-1.52-48.64-2.38-97.29-3.66-145.93-.39-14.9-4.63-16.87-18.77-19-43.21-6.5-81.81,48.73-72.44,89.15,2.8,12.07,11.16,18.89,20.57,25.62,4.56,3.26,15.44,5.94,9.8,13.55-5.82,7.84-12.29-1.35-15.86-5.45-11.22-12.91-20.37-27.21-22.84-44.86-.55-3.93,1-10.61-6.62-9.79-6,.63-9.28,3.7-10.16,10.52-2.42,19-8.9,36.25-24.95,48.38a30,30,0,0,1-3.91,2.53c-.6.32-1.42.21-3.08.41.41-4.79,3.93-7.37,6.27-10.56,3.66-5,8.18-9.28,10.42-15.35,7.9-21.41,6-24.89-16.24-25.83-12.21-.52-22.75-3.52-31.57-14.38,6.95-1.43,12.07,1.56,17.3,2.92,31,8,48.14,2.41,67.13-23.11,12.31-16.54,23.84-33.66,36.09-50.25,5.26-7.12,3.5-11.48-3.3-16.12-12.24-8.35-25.75-9-39.25-6.2-11.35,2.35-23.88,4.6-33,11-21.63,15.22-46.11,24.91-68.46,38.48-15.44,9.38-31.79,15-49.74,14.17-17-.78-28.05,7.65-36.35,21C228,1003.86,221.17,1046,233.37,1091c1.16,4.28,4.47,8.31,2.27,13.74-7.8-4.2-10.72-11.58-12.28-19-5-24.23-6.89-48.45,1.68-72.52,7-19.78,13.35-39.81,20.24-59.64,1.22-3.51,2.22-6.65.08-9.94-5.56-8.55.36-8.63,6.39-8.86,8.95-.33,17.91-.58,26.83-1.26,25.74-2,49.26-9.59,70.32-25.33,28.49-21.29,63.09-29.84,95.22-43.53C449.8,862.14,455.48,859.7,463.61,856.22Z" transform="translate(-65.81 -163.93)"/><path d="M622.37,356.69c25,6,41.93,21,50.89,44.65,1.09,2.9,1.82,5.94,2.78,8.9,1,3.19,1,7.7,5.69,7.54,4.13-.14,3.71-4.43,4.63-7.19,7-21,10.67-42.14,1.8-63.82,9.43,8.85,17.36,17.79,15.41,32.26-3.07,22.73-5.2,45.58-7.69,68.38-1.36,12.49-.73,24.78,4.16,38.35,37.59-50.88,44-108.34,40.76-169,7.31,3.3,7,8.76,11.11,11.67,8.35-8.29,10.93-20.49,18.93-29.22-7,23.88-13.57,47.74-16.78,72.37a42.46,42.46,0,0,0-.74,5.79c.62,48.88-21,89-49.81,126.25-12.37,16-24,32.54-35.19,49.4-7.26,10.93-10.44,22.26-9.08,35.23,1.18,11.21,1.59,22.5,2.66,33.73.41,4.36-.72,10.32,5,11.74,5.23,1.28,10.92.75,15.39-3.29,10.78-9.73,16.82-21.28,13.75-36.27-.61-3-1.19-6-1.75-8.78,2-1,2.56,0,2.83,1,3.32,11.89,9.29,10.25,17.41,4.21,6.5-4.83,12.94-12.36,22.71-6.25.55.34.86,1.09,2.24,2.93-23.1,10.57-35.14,32-50.22,50.45-5.08,6.22-10.76,11.18-19.57,10.72-5.7-.3-8.1,2.91-8.92,8.39-1.09,7.3-2.87,14.49-4.38,21.72-1.27,6.08-3.72,10.05-11.16,7.7-6-1.91-13.48-2.73-10.33-11.67,18.65-52.93-2.23-102.83-11.9-153.45-4.22-22.09-11.56-43.57-16.78-65.5-1.79-7.54-5.28-12.28-12.21-15.52-13.7-6.4-19.92-17.81-20.51-32.69-.23-5.95.53-9.06,7.74-5.83,14.37,6.44,24.31,14.43,28.2,31.93,8.41,37.9,20,75.09,30.51,112.53,1,3.49.43,8.88,5,9.49,4.21.54,5.8-4.52,8.41-7.23,21.89-22.77,35.52-47.47,25.79-81.08-4-13.85-3-29.29-5.75-43.84-4.35-22.79-15-41.44-34.9-54.29C632.9,365.39,627.76,360.84,622.37,356.69Z" transform="translate(-65.81 -163.93)"/><path d="M523.63,557.81C532.4,568,539,575.59,542.21,585.35c.89,2.65,1.33,5.48,4.25,6.48,6.47,2.21,13.14,8.56,19.41,5.23,5-2.65,2-10.71,2.16-16.36A90.62,90.62,0,0,0,564.48,553c-5.46-18.32-18.69-28.5-36.89-31.49-23.78-3.91-47.78-6.43-71.63-9.88-18.77-2.72-32.86-11.5-47.9-24.69-33-29-39.82-66.47-44.64-105.47-2.77-22.45,9.74-42.29,15.32-65.94,3.1,9.39,3.34,9.47,1.31,16.35-8,27.21-5.75,54.69-2.34,82.19,1.07,8.66,5,16.2,10.07,23.31a163.62,163.62,0,0,1,21.36,40c2.14,6,5,8.83,10.69,10.36,7.5,2,14.89,4.49,22.28,6.88,6.78,2.19,8.39-.07,6.52-6.64-3.7-13.09-7.16-26.24-10.5-39.42-2.84-11.2-1.18-21.33,9.23-30.67-.69,14-1.45,26.51-1.88,39.07-.7,20.15,17.72,42.76,37.45,46q31.08,5,62.23,9.66c2.8.41,6.55,2.42,8.36-1.13,1.36-2.66-1.58-4.95-3-7.11-23.88-36-46.24-72.92-69.61-109.2-11.43-17.75-10.63-36.86-12.22-56.05-.24-2.83.55-5.81,3.68-6.52,3.89-.88,4.11,2.57,4.71,5.12,11,47.09,33.47,88.4,64.28,125.28,21.13,25.29,31.08,54.26,36.15,86.79,4.91,31.49-1,63.94,10.09,94.63,2.43,6.74-1.61,10.59-7.9,11.39-7.08.9-7.23-5.07-7-9.47.53-11.52-5-19.92-12.21-28-9.81-11-20.69-21.21-28.72-33.71C527.14,577.49,523.47,569.84,523.63,557.81Z" transform="translate(-65.81 -163.93)"/><path d="M258.81,672.88c21.53-24,50.88-13.4,77.25-17.86-2.08-6.57-7.17-9-11.39-12.14-5.66-4.16-13.08-7.68-15.44-13.92C298.65,601,273,601.2,250.71,598.7c-40.59-4.57-79.36,1.34-110.2,32.31-2.83,2.85-5.69,6.46-10.57,6.17-2.64-3.35.2-5.22,2-6.88,5.41-5,11.93-9.1,16.5-14.77,17.5-21.76,41.69-25,67-24.68,21.39.29,42.77,1.62,64.13,2.91,7.6.45,9.65-1.34,7.17-9.09a169.35,169.35,0,0,0-34.06-60.56c-12.8-14.64-29.44-20.85-48-24.05-9.27-1.6-19-2.37-27.59-8.54,20.43-8.07,60.51,3.62,75.76,22.18,8.14,9.91,15.07,20.79,22.87,31,3.25,4.22,6.14,9.07,13.8,12.14-.83-24.38-.45-47.72-4-70.91-3.6-23.43-14.15-45.1-18.52-69.34,9.78,1.77,11.68,9.11,13.63,15.87,5.62,19.43,10.78,39,16.26,58.45,3.93,13.92,4,13.89,14.87,3.69a40.38,40.38,0,0,1,4-2.77c-.65,7.09-5,11.11-8.34,15.18a39.78,39.78,0,0,0-9.2,22.25c-5,50.78,9.66,92.22,53.8,122,18.7,12.64,37.39,21.41,60,21.39a32.73,32.73,0,0,1,10.34,1.49c6.51,2.2,7.11,8.07,6.25,13.53-1.06,6.81-6.79,4.06-10.26,3.18-17.34-4.39-35.08-7.91-51.66-14.36-33-12.86-66.24-10.87-99.9-4.69C264.11,672.29,261.45,672.53,258.81,672.88Z" transform="translate(-65.81 -163.93)"/><path d="M893.88,799.69c3.9,8.67,10.27,15,16.17,21.65,8.84,9.89,17.5,20,24.36,31.27,8,13.17,18.59,20.41,34.38,19.64,4.86-.23,9.79,1,16.31,1.71-7.89,5.84-17,4.87-23.75,10.5,7.37,9.27,17.48,14.71,25.64,22.33,2.2,2.06,5.9,4.24,4.07,7.53-1.94,3.49-5.45.72-8.34.1-12-2.57-20.65-9.07-27.83-19.29A485,485,0,0,0,896,825.81c-22.45-21.83-20.57-21.34-46.08-12.57-3.71-18.12-3.12-17.49,13.32-23.26,27.1-9.52,54.83-10.27,83-9.25,8.51.31,15.41-1.9,23.16-7.56,41.12-30.07,51.47-75.09,61.82-120.5,1.23-5.43.79-11.51,4.75-16.68,6.15,14.58.92,56.17-9.68,80.33-11.12,25.35-29.91,44.9-50.93,65.82,17.61.51,33.1,3.29,48.19.27s28.82-10.87,45.13-14.11c-2,12.05-9,18.71-18.07,23.61-13.48,7.28-28.36,7.9-43.16,8.19-23,.47-45.8-2.78-68.67-4.79C923.72,794,908.5,792.17,893.88,799.69Z" transform="translate(-65.81 -163.93)"/><path d="M795.07,1044.17c5.12-11.1,12.64-20.45,19.38-30.22,16.53-24,26.92-49.89,26-79.55-.07-1.94-.44-4.28.45-5.76,7.33-12.18-1.77-16.87-9.83-21.92-12-7.5-24.51-13.6-38.92-14.61-4.54-.32-8.43-1.74-10.67-6-1.84-3.46-4-7.49-2.26-11.07,1.93-4,6.27-1.23,9.52-1.24,20.85-.05,38,10.28,55.07,20.33a342.81,342.81,0,0,0,62.32,29c3.28,1.12,6.78,2.41,9.37,4.58,18.73,15.71,35.76,33.2,55.32,52.57-12.23-1.94-20.33-4.1-26.5-12.29a77.65,77.65,0,0,0-38.19-27.62c-14-4.63-27.85-9.86-41.83-14.65-3-1-6.51-3.77-9.12,1-2.1,3.83-2.28,7.08,1.22,10.46,3.33,3.21,6.88,6.62,8.95,10.66,12.26,23.92,29.53,41.82,54.94,52.52,13.23,5.57,21.14,17.85,24.64,32.37,1.59,6.58-.36,8-6.83,7.61-12-.76-20.88-5.38-25.53-16.92-2.47-6.13-5.61-12-7.72-18.26-4.22-12.49-14.9-17.52-25.83-18.85-6-.73-7.73-2.76-9.78-6.75-4.09-8-8-16-12.26-23.87-1.23-2.28-3-5-6.24-4.28-2.87.68-2.27,3.77-2.52,5.86-4,33-24.08,57.62-43,82.87C802.83,1043.29,800.56,1046.51,795.07,1044.17Z" transform="translate(-65.81 -163.93)"/><path d="M130.71,848.1c7,.85,7.73,5.32,9.45,8.51,5,9.24,10.1,18.45,14.2,28.09,11.17,26.32,31.84,39.2,59.17,43.11,8.59,1.23,16.25,3.22,21.81,11.28,4.38,6.36,2.87,8.47-3.5,10.41-5.57,1.7-11,3.92-16.43,6-27.93,10.62-48.84,29.73-65.65,53.94-6.56,9.46-13.7,18.51-21.6,29.11-3.24-7.41-.81-12.16,1.2-17,6.52-15.58,18.7-26.53,30.72-37.63,5.14-4.75,10.11-9.69,15.14-14.55,4.39-4.24,10.39-8.72-6.76-10.1,15.52-4.24,26-7.06,36.41-10,2.5-.7,5.67-.83,5.72-4.61s-2.25-5.42-5.76-6c-10.26-1.65-18.81-7-27.29-12.61-23.87-15.77-54.08-7.67-66.75,18.39-6.25,12.83-14,22.61-29.77,21.48-3.16-.22-7.56.89-8.86-3.73C71,958,70.87,953.4,74.63,950.36,86.3,941,96.3,928.71,112.82,927.24c3.54-.31,7.24-1.19,9.36-4.15,4.48-6.23,11-8.14,17.89-10,14.79-3.93,14.65-4,8.9-18.56C143,879.54,135.35,865.15,130.71,848.1Z" transform="translate(-65.81 -163.93)"/><path d="M221.78,795.91c27,47.27,49.17,99.12,113.58,112.64-14.28,7.39-24.65,4.91-34.72.68a108.44,108.44,0,0,1-34.8-22.91c-25-24.82-40.87-55.27-53.41-87.69-1.24-3.18-1.51-6.79-1.9-10.24-.29-2.62-.05-5.3-.05-9.52,7,5,5.4,13.92,11.67,17.39Z" transform="translate(-65.81 -163.93)"/><path d="M387.68,592.88c2.7-8.47,8.75-12,14.46-15.86,10.35-7,10.29-9.78-.2-16.06-17.62-10.55-30.32-24.77-32.72-46.77,9.65,10.41,19.58,20.6,28.88,31.32,8.08,9.32,17.61,14.24,30.12,15.26,20.58,1.67,34.41,14.77,46.14,30.35a20,20,0,0,1,3.23,8.59c.67,4.07,2.13,9.76-2.67,11.34-5.26,1.73-10.85-.85-13.92-5.86-1.76-2.87-1.87-6.71-3.13-10-4.05-10.39-11.2-16.17-22.93-16.35-14.44-.23-29.08-2-39.08,12-.59.83-2,1.21-3.09,1.52A35.83,35.83,0,0,1,387.68,592.88Z" transform="translate(-65.81 -163.93)"/><path d="M450.53,190.85C459.62,202,464.1,214,469.64,225.19c3.63,7.37,6.36,8.59,11.85,1.82,6.59-8.14,13.75-15.81,20.75-23.61,1.75-1.94,3.93-5.14,6.6-3.2,3.11,2.26,1.33,5.62-.69,8.19a75,75,0,0,1-6.72,8c-17.86,17.11-25,38.6-26.6,62.69-1,14.7-3,29.33-4.58,44-.29,2.63-.32,6.22-3.69,6.4-3.95.22-4.79-3.53-5.15-6.58a104.07,104.07,0,0,1,1.06-32.49c5.57-27.88,3.65-54.68-8.77-80.59C451.21,204.64,448.14,199,450.53,190.85Z" transform="translate(-65.81 -163.93)"/><path d="M1006.66,1059.92c-6.6,2.15-10.65-1-13.23-6.27-7.64-15.73-15-31.6-22.6-47.36-1.85-3.84-1.14-7.51-.32-11.35,1.2-5.73,3.42-8.69,9.25-4.24,1.85,1.41,4.12,2.29,5.88,3.79,30.49,26,65.26,28.15,102.19,18.52a69,69,0,0,1,6.83-1.43c.65-.11,1.4.4,3.07.94-10.39,9.89-22.53,14.33-35.92,14.83-25.6,1-51.71,3.61-73-15.72-1.27-1.15-3.76-2.22-5.13-1.75-2.67.92-1.91,3.94-1.65,6,1.55,12.82,7.67,23.46,16,33.08C1000.92,1052.45,1005.22,1054.9,1006.66,1059.92Z" transform="translate(-65.81 -163.93)"/><path d="M945.73,507c9.62-27.93,32.85-43.31,57.47-56,26.63-13.78,55.3-17.1,84.62-9.43-5.23,4.65-11.4,4.57-17.37,4.45-37.29-.75-69.51,10.21-94.92,38.89-8.1,9.14-18.12,16.58-27.26,24.8Z" transform="translate(-65.81 -163.93)"/><path d="M322.21,322.68c-21.85-22.66-25.15-47.49-24.47-74.79,3.84,4.11,1.45,9.46,6,12.71,4.51-7.61,9.24-15.09,13.48-22.84,6-11,15.31-14.3,27.3-13.19,5.84.54,7.53,2,5.4,7.84C345,245.84,337.29,255.9,323.15,261c-18.43,6.63-19.63,9.78-13.3,28.48C313.28,299.59,317.29,309.52,322.21,322.68Z" transform="translate(-65.81 -163.93)"/><path d="M1135.41,646.59c7.24,3.17,7.25,7.62,7.76,11.74,5.92,48.34-18.28,82.25-53.3,110.92a20,20,0,0,1-5.18,2.55c-3.51,1.44-7,1.64-9.36-1.86s.87-5.78,3-7.8c7.32-6.95,14.34-14.32,22.31-20.44,25.69-19.72,34.67-46.63,34.78-77.66C1135.43,658.67,1135.41,653.3,1135.41,646.59Z" transform="translate(-65.81 -163.93)"/><path d="M1128.82,856.63c-9.9,17.48-19.16,32.62-33.41,42.15-26.85,18-55.21,33.55-89.84,24.6-4-1-9.5-.33-9.25-6.43.3-7,6.27-4.11,9.83-4.28,15.07-.71,30.3,1.19,45.11-3.17,23.72-7,43.86-19.25,59.16-39.1C1114.42,865.21,1118,859,1128.82,856.63Z" transform="translate(-65.81 -163.93)"/><path d="M587.65,284.43a92.58,92.58,0,0,1-19,28c-26.75,27.86-40.13,61.45-44.1,99.33-.28,2.68-.87,5.33-1.36,8-.06.32-.43.58-.65.87C505.72,396.69,549.87,291.71,587.65,284.43Z" transform="translate(-65.81 -163.93)"/><path d="M982.87,969.83c-5.48-.19-13.06-.48-15.43-8.83s.95-15.38,8.71-19.6c9.82-5.34,20.31-7.43,31.46-5.22,5.62,1.11,7.85,4,6.37,9.94C1010.5,960.13,998.91,969.64,982.87,969.83Z" transform="translate(-65.81 -163.93)"/><path d="M465.1,1061.09c-1.14,6.37-.62,13.62-4.15,19.91-4.47,8-10.12,8.25-14.73.37-7.25-12.4-11.5-25.39-6.09-39.94,1.79-4.82,4.12-8.22,9.55-8.77,5.24-.54,7.58,2.85,9.76,6.76A44.64,44.64,0,0,1,465.1,1061.09Z" transform="translate(-65.81 -163.93)"/><path d="M191.63,480.27c-11.13.7-17.37-6.86-22.39-16.23-3.34-6.23-5.15-13-6.79-19.76s1.55-8.19,7.47-7.17c15.37,2.66,33.42,22.69,33.87,37.73C203.94,479.86,202.36,480.62,191.63,480.27Z" transform="translate(-65.81 -163.93)"/><path d="M764.63,436.92c-6.47.91-9.31-1.48-6-8.39,3.51-7.32,6.69-14.87,11-21.73,5.5-8.8,19.44-12.84,28.92-9.75,3,1,3.57,2.57,3,5C798,419,786,436.54,764.63,436.92Z" transform="translate(-65.81 -163.93)"/><path d="M895.35,1088.31c.2-3.09,0-6.27.66-9.25,1.62-7,5.29-8.81,11.71-4.43,17.13,11.72,18.77,35.57,11.27,50.16-4.29,8.34-10.87.91-13.72-3.61C899.06,1111.31,894.62,1100.49,895.35,1088.31Z" transform="translate(-65.81 -163.93)"/><path d="M180.5,1027.85c-12.21.15-12.74-.67-8-12.33,6.35-15.54,18.39-23.58,34.66-24.09,7.87-.25,9.23,3,7.66,9.81C210.91,1018.33,199.1,1027.63,180.5,1027.85Z" transform="translate(-65.81 -163.93)"/><path d="M965.53,727.35c-10.24-1-19.92-3.25-27-11.72-5.51-6.59-5.25-11.79,3.18-15.43,11-4.75,22-5.59,32.24,1.48,4.58,3.18,12.14,5.08,9.24,13.9S974.52,728,965.53,727.35Z" transform="translate(-65.81 -163.93)"/><path d="M102.58,831.17c-14,.28-34.34-17-36.55-30.47-1.32-8.07,3.36-12.45,11.68-10.93,13.28,2.42,30.56,21.77,31.89,35.45C110.21,831.5,105.58,830.54,102.58,831.17Z" transform="translate(-65.81 -163.93)"/><path d="M360,762.87c-.75,3.54,2.27,9-2.18,11.32s-8.84-1.84-12.49-4.27c-14.69-9.8-16.42-25.39-17.11-41.08-.28-6.24,4.19-5.19,8.15-3.83C351.78,730.27,359.69,742.82,360,762.87Z" transform="translate(-65.81 -163.93)"/><path d="M999.86,366.36c5.16-.34,10.14.35,14.32,3.63,5.46,4.3,13.74,9.35,11.35,16s-10.86,10.72-19,11.15c-12,.65-20.41-6.37-27.76-14.61-3.69-4.13-1-8.15,2.51-11C986.63,367.19,993.07,366,999.86,366.36Z" transform="translate(-65.81 -163.93)"/><path d="M1065.81,691.88c12.5,0,13,1,8,13-5.76,13.84-15.41,22.22-30.69,22.61-11.2.29-15.23-6.24-9.15-15.48C1041.28,700.89,1049.84,690.64,1065.81,691.88Z" transform="translate(-65.81 -163.93)"/><path d="M879.21,310.48c.11-21.15,9.49-36.27,24.66-40.76,9.67-2.87,13-.38,10.56,9.13-4.06,15.65-9.55,30.7-26.92,36.77C881.86,317.59,878.06,316.83,879.21,310.48Z" transform="translate(-65.81 -163.93)"/><path d="M643.48,184c2.89,14.29-5.68,23.48-14.54,32.33-5.83,5.83-10.05,4.47-12.17-3.67-3.69-14.2,5-38.94,16.57-47.25,5.21-3.73,7.59.48,8.56,3.73C643.3,173.81,643,179,643.48,184Z" transform="translate(-65.81 -163.93)"/><path d="M871.42,1025.59c-1,3.21,3.65,11.34-3.19,13.44-6,1.87-11-4.58-15.2-9.06-11.78-12.44-8.07-27.69-6.34-42,.76-6.35,6.63-5.29,10.54-1.09C866.81,997.17,873.27,1008.79,871.42,1025.59Z" transform="translate(-65.81 -163.93)"/><path d="M265.83,833.54c-4.7-.62-11.47-.54-13.84-5.51-2.24-4.67,2.85-9.08,5.9-12.92,8.82-11.12,21-14.14,34.29-12.54,8.92,1.07,11.21,8,5.78,15.14C292.65,824.73,275.4,833.41,265.83,833.54Z" transform="translate(-65.81 -163.93)"/><path d="M1037,1058.4c11.3.33,21.74,2,26.63,14.41,1.94,5,.87,7.76-3.77,10.35a31.43,31.43,0,0,1-40.9-8.74c-4.65-6.17-1.49-9.85,3.44-13.35C1026.91,1057.89,1032.05,1058.59,1037,1058.4Z" transform="translate(-65.81 -163.93)"/><path d="M339.41,406.27c-13.69,3.41-22.17-6-29.08-17.61-3.65-6.11-2.66-10.32,5.91-10,14.05.48,29.62-3.68,37.89,13.22,1.83,3.75,5.69,7.53,3.58,11.72-2.33,4.62-7.69,2.12-11.73,2.65A61.79,61.79,0,0,1,339.41,406.27Z" transform="translate(-65.81 -163.93)"/><path d="M139.62,507.42a55.74,55.74,0,0,1-5.8-.34c-5.93-.91-14.82.37-16.12-5.9-1.38-6.64,5.28-12.41,11-16.6,5.45-4,32.15-4.45,37.35-1.21,3.19,2,2.17,4.44,1.51,7.09C164.58,502.43,155.94,507.69,139.62,507.42Z" transform="translate(-65.81 -163.93)"/><path d="M925.75,618.1c-3.87-.32-9.16.55-7.52-7.25,3.68-17.49,24.14-31.89,41.36-29.23,4.85.75,5.47,2.35,4.16,6.8C958.83,605.09,943,617.92,925.75,618.1Z" transform="translate(-65.81 -163.93)"/><path d="M361.44,1036.73c-14.54.82-25.88-7.51-33.92-21.28-3.74-6.41-2.63-10.79,5.71-10,15.09,1.35,30.95,1.89,39.24,17.84C377.91,1033.72,375.31,1037.26,361.44,1036.73Z" transform="translate(-65.81 -163.93)"/><path d="M880.4,332c-3.4,52.59,19,95.61,41,141-6.92-.91-7.85-4-9.38-6.17a90.8,90.8,0,0,1-5-7.89c-5.16-9.27-19.35-16.36-19.24-23,.16-10.48-1.22-20.37-3.08-30.28-3.36-17.93-7.41-35.74-11.62-53.5C871.45,345,872.66,339.38,880.4,332Z" transform="translate(-65.81 -163.93)"/><path d="M814,745c14.07.26,22,7.17,28.13,16.77,2,3,1.92,5.34-1.44,7.79A31.77,31.77,0,0,1,801.81,768c-10.18-8.49-9.35-15.15,2.83-20.47C808.11,746,812,745.5,814,745Z" transform="translate(-65.81 -163.93)"/><path d="M824.9,952c7-1.2,8.72,2.25,7,9.34-3.82,15.45-20.88,31.33-36.56,33.81-6,1-9.65.73-7.51-7.32C791,975.73,814.33,952.08,824.9,952Z" transform="translate(-65.81 -163.93)"/><path d="M804.85,354.73c0,16.49-19.29,33.86-36.09,32.75-5.3-.35-5-3.72-5-7.22-.09-17,18.88-34,35.82-32.53C804.64,348.17,805,351,804.85,354.73Z" transform="translate(-65.81 -163.93)"/><path d="M891,943.61c20,0,30.19,8.63,30.62,25,.07,2.77.86,5.83-3.33,5.85-12.61.08-25.14-.44-34.71-10.33-4.75-4.9-9-11.33-6.46-17.73C879.47,940.59,886.88,945,891,943.61Z" transform="translate(-65.81 -163.93)"/><path d="M685.4,310.46c0,3.11.24,6.24-.06,9.32-.31,3.25,1.7,7.59-2.37,9.38s-7.41-.79-10.57-3.2c-5-3.76-7.07-9-8.31-14.87a115.8,115.8,0,0,1-2.57-27.77c.11-3.26-1.22-7.59,3.12-9.09,3.49-1.22,6.8.71,9.78,2.61C687.33,285,684.6,298.31,685.4,310.46Z" transform="translate(-65.81 -163.93)"/><path d="M246,565.22c-13.25.78-21.19-8.65-30.17-15.64-5.09-4-.55-6.81,2.5-8.84,10.31-6.9,35.54-2.77,44.34,7,6.2,6.9,4.77,12.87-4.14,15.55C254.49,564.53,250.15,564.62,246,565.22Z" transform="translate(-65.81 -163.93)"/><path d="M297.49,396.73c.88,6.27-1.18,13.15-4.81,19.76-3.77,6.86-7.86,5.43-11.24.16-10.2-15.92-10.17-32.56-2.94-49.68,2.54-6,5.06-5.07,9.08-1.37C296.49,373.79,297.2,384.47,297.49,396.73Z" transform="translate(-65.81 -163.93)"/><path d="M581.34,343.46c-1.51-.23-4-.15-6.07-1-5.17-2.13-13.55,0-13.54-9.45,0-8.26,8.17-18.39,16.21-18.6s16.24.79,24.27,2c7,1,7,6.55,5.56,11.68C606.47,332.77,587.48,343.78,581.34,343.46Z" transform="translate(-65.81 -163.93)"/><path d="M266.46,281.88c1-4.76-2.18-10.08,2.32-12.49,4-2.15,8.22,1.28,11.85,3.34,11.7,6.62,19.64,26.09,17,39.66-.86,4.37-3,4.49-6.51,4.24-10.93-.76-19.1-8-22.31-20.56C267.55,291.21,267.14,286.14,266.46,281.88Z" transform="translate(-65.81 -163.93)"/><path d="M1047.19,616.31c.23-13.6,12.46-29.17,24.76-33.21,4-1.32,5.45,0,6.91,3.43,5.83,13.55-6.62,39.55-21,42.72C1045,632.08,1048.34,621.82,1047.19,616.31Z" transform="translate(-65.81 -163.93)"/><path d="M312.93,805.47c6.26-12.36,14.84-18.31,24.8-19.83,15.82-2.42,31.71-2.46,45,9.69,9,8.21,19.61,14.7,27.58,25.5-13.79,4.53-21.08-3.74-28.17-11.05-12.68-13-27.07-19.52-45.17-13.71C329.71,798.4,322.71,801.61,312.93,805.47Z" transform="translate(-65.81 -163.93)"/><path d="M235.27,423c8.62-.84,16.19,3.77,23.71,7.47,6.25,3.07,5.11,7.73-.38,11.56-13,9.06-33.42,8.92-46.28,0-3.89-2.69-3.82-5.05-1.79-8.66C214.58,426.12,221.68,423,235.27,423Z" transform="translate(-65.81 -163.93)"/><path d="M1104.62,500c-1.42,4,2.52,9.51-4,11.08-5,1.2-8.35-.9-11.8-5.05-9.6-11.57-13.65-24.9-15.39-39.46-.89-7.39,2.64-7.93,8.1-6.45,11.29,3.05,17.61,11,20.27,21.89C1103.23,488,1103.74,494.25,1104.62,500Z" transform="translate(-65.81 -163.93)"/><path d="M1144.94,484.11c-16.66-.42-27.89-8.95-34-25.25-2.3-6.18.19-8.58,5.85-9.65,17.23-3.26,36.87,12.56,37.27,30.11C1154.22,484,1153.57,484.33,1144.94,484.11Z" transform="translate(-65.81 -163.93)"/><path d="M138,668.5c.35-9.68-.36-17.22,4.11-23.68,4.67-6.76,10.31-6.73,14.58-.11,6.52,10.14,5.36,38.21-1.88,47.86-4.28,5.7-7.44,5.62-10.94-1C139.55,683.55,136.76,675.36,138,668.5Z" transform="translate(-65.81 -163.93)"/><path d="M246,481.8c-.89-11.17,4.07-20.44,11.86-28.73,5-5.33,8.76-5,10.75,2,4.56,16.18,1.22,31.74-5.66,46.43-3.51,7.52-10,6.8-13.69-1A37.13,37.13,0,0,1,246,481.8Z" transform="translate(-65.81 -163.93)"/><path d="M712,652.49c-5.72-.17-11.51-.24-14.08-6.21-2.4-5.59,1.6-9.71,5.12-13.12,8.32-8,16.66-16.53,29.62-15.91,10.19.48,13.6,6.19,7.82,14.39C733.47,641.61,726,651.83,712,652.49Z" transform="translate(-65.81 -163.93)"/><path d="M1151.84,798.31c-1.11,8.25,1.71,20.09-7.63,29-5.17,4.95-8.87,6.72-12-2.24-5.87-16.52-5.73-31.85,6.26-45.66,2.39-2.75,4.58-7.24,9.18-5.45,4.21,1.64,4,6.28,4.19,10.07S1151.84,791.8,1151.84,798.31Z" transform="translate(-65.81 -163.93)"/><path d="M348.57,450.09c-1.56,11.85-4.43,23.31-15.39,30.81-6.63,4.53-11,3.17-11.72-5.13a98.75,98.75,0,0,1,3-32.16c1.91-7.62,9.68-10.89,16.53-9.91C349.52,434.93,347.94,443.38,348.57,450.09Z" transform="translate(-65.81 -163.93)"/><path d="M608.31,228.89c-.21,17-4,30.7-20.18,37.38-2.54,1.05-5.54,3.65-7.65-1.09-5.47-12.29,1.93-37.23,13.35-43.87,3.6-2.1,7.54-5.69,11.72-3.71C611,220.16,606.92,226.06,608.31,228.89Z" transform="translate(-65.81 -163.93)"/><path d="M248.47,409.23c-16.09-.62-31.86-12.82-35.57-27-1.42-5.45-.55-7.47,5.58-7.84,17.54-1.06,31.53,7,39,23.32C260.39,404.07,256.13,409.53,248.47,409.23Z" transform="translate(-65.81 -163.93)"/><path d="M311.54,789.81c-13.14-1.38-23.45-8.32-31.48-19.08-2.17-2.92-.63-4.76,1.69-6.79,10.83-9.45,38.19-3.93,44.62,9.1C329.75,779.9,321.55,789.49,311.54,789.81Z" transform="translate(-65.81 -163.93)"/><path d="M932.17,661.14c8.76-1.24,8.68,2.71,5.63,10-6.47,15.41-15.57,26.55-34.1,26.14-6.69-.15-8.7-2-6.87-9C901.83,668.92,911.21,661.23,932.17,661.14Z" transform="translate(-65.81 -163.93)"/><path d="M95.42,635.39c-2.48-.4-5.65-.52-8.54-1.48-10.2-3.39-11.13-7.71-3.5-15.14,13.84-13.49,26.66-14.89,39.9-5.16,6.17,4.53,5.43,8,.85,13.08C116.33,635.25,105.88,634,95.42,635.39Z" transform="translate(-65.81 -163.93)"/><path d="M149.57,719.12c22.47.37,32.53,10,34.42,32.29.24,2.89,1,6.23-3,5.81-8.63-.91-18.21.25-24-8.69-4.24-6.51-8.67-12.89-12.82-19.46-1.59-2.5-4.73-5.11-2.85-8.28S147,719.56,149.57,719.12Z" transform="translate(-65.81 -163.93)"/><path d="M802.34,1074.16c5.07,16.23-9.85,23.35-19.28,33.43-2.91,3.12-4.94,2.5-6.75-1.55-6.24-14,5-44.68,18.9-51.21,4.92-2.3,7.28-.71,7.15,4.75C802.26,1063.84,802.34,1068.11,802.34,1074.16Z" transform="translate(-65.81 -163.93)"/><path d="M386.34,288.66c-.13,1,0,3.47-.83,5.53-2.34,5.58-3.8,13.17-11.11,13.32-6.37.14-7.59-7-9.51-11.83-4.78-12-8.15-24.19-3.85-37.26,1.5-4.56,2.77-6.71,7.82-3.47C379.08,261.5,386.57,274.82,386.34,288.66Z" transform="translate(-65.81 -163.93)"/><path d="M106,917.69c-12.89,0-20-7-27.77-12.74-3.39-2.49-1.11-4.56.81-6.59,6-6.32,12.86-9.83,21.88-7.82a77.24,77.24,0,0,1,21.7,8.26c3.33,1.9,7.46,3.4,6.46,8.45-.86,4.3-4.21,6.56-8.11,7.52C115.37,916.16,109.6,917,106,917.69Z" transform="translate(-65.81 -163.93)"/><path d="M697.05,272.47c-1.39-8.12,3-9.36,10.24-7.3,13.92,3.95,27,24.66,24.74,38.65-.92,5.74-4.43,4.32-7.7,3.67C707.44,304.15,696.85,290.75,697.05,272.47Z" transform="translate(-65.81 -163.93)"/><path d="M774.31,338.87c-6.59.74-7.27-3.09-6.3-8.64,2.71-15.45,19.47-30.12,35-30.83,5.9-.27,6.15,3.05,6,7.31C808.28,322.35,790.32,339.21,774.31,338.87Z" transform="translate(-65.81 -163.93)"/><path d="M566.48,356.88c8.34.25,14.3-1,17.06,5.55,2.88,6.87-2.79,10-6.62,13.36-9.34,8.23-19.8,13.62-33,11-8.31-1.64-10.74-5.22-5.5-12.69C546.06,363.31,555.4,355.91,566.48,356.88Z" transform="translate(-65.81 -163.93)"/><path d="M753.35,749.32c20.22.86,33.21,13.34,33.23,30.88,0,6.83-1.52,10-9.49,8.06-15-3.75-28.68-18-31-33.08C744.86,747.52,750.05,749.44,753.35,749.32Z" transform="translate(-65.81 -163.93)"/><path d="M831.27,286.91c-12.66-.7-22.41-4.86-29.78-13.69-5-6-3.34-11.08,3.68-13.48,11.46-3.93,33.34,3.59,41.41,13.05,5.75,6.73,5.18,10.64-4,12.15C838.41,285.63,834.22,286.39,831.27,286.91Z" transform="translate(-65.81 -163.93)"/><path d="M984.38,319.09C988,334,974.54,341,966.48,350.71c-3.43,4.16-4.81.19-6.23-2.67-5.08-10.28-3.19-20.36.79-30.32a89,89,0,0,1,6-12.53c2-3.32,2.31-9.77,7.9-8.16s10.39,5.32,9.49,12.67C984.11,312.37,984.38,315.11,984.38,319.09Z" transform="translate(-65.81 -163.93)"/><path d="M344.21,604.49c-.27,3.87-.06,7.85-.92,11.58-1,4.37.52,11.09-4.24,12.47-5.78,1.68-9.86-4.28-12.61-8.51-8.24-12.69-7.22-26.56-2.64-40.27a8.86,8.86,0,0,1,7.91-6.11c4.67-.25,6.73,3.24,8.34,6.92C343.39,588.19,344.36,596.23,344.21,604.49Z" transform="translate(-65.81 -163.93)"/><path d="M180.64,641.72c1-16.88,11.69-28.62,28.42-31.81,6.17-1.18,7.26,1.93,7.85,6.79,1.65,13.72-15.4,34.22-29.2,35.5C178.22,653.08,180.55,646.84,180.64,641.72Z" transform="translate(-65.81 -163.93)"/><path d="M869.72,749.78c-18.79,0-25-3.94-27.31-15.49-.44-2.23-1.34-4.37.74-6.4,7.17-7,34.32-5.41,41.32,2.66,3,3.49,6.48,7.48,5.47,12.3-1.2,5.69-7.23,5-11.43,6.14C874.86,750,870.86,749.69,869.72,749.78Z" transform="translate(-65.81 -163.93)"/><path d="M521.29,233.55c-4.35-1-13.55,3.06-15.75-4.47s5.67-13,11.26-17.37c10.13-8,26.36-6.44,36.35,2,4.07,3.45,2.22,5.77,0,8.62C545.41,232.26,534.67,234.19,521.29,233.55Z" transform="translate(-65.81 -163.93)"/><path d="M140.91,564.41c14.64.54,24,9.81,33.13,19.38,3,3.18,1.05,5.26-2,7.25-9.71,6.37-36.09,1.92-42.79-7.53-2.79-3.93-4.33-8.75-2.31-13.15C129.6,564.58,135.81,565.18,140.91,564.41Z" transform="translate(-65.81 -163.93)"/><path d="M193.5,507.09c3.26,1,8.1-2.08,10.22,2.46s-1.58,8.1-4.19,11.29c-6.13,7.5-12.77,14.56-18.83,22.11-5.18,6.45-11.89,4.11-18.25,3.89-3.16-.11-3.85-2.64-2.9-5,5.14-12.59,10.7-25,22.39-33.13C185.35,506.37,189.44,507.42,193.5,507.09Z" transform="translate(-65.81 -163.93)"/><path d="M989.05,674.47c1.05-6.73-3-17.45,2.74-19.41,6.26-2.13,8.49,9.08,13.2,13.82,10.87,11,7.67,24.56,6.21,37.47-.88,7.71-5.64,8.47-11.44,3.51C988.63,700.34,988.16,687.64,989.05,674.47Z" transform="translate(-65.81 -163.93)"/><path d="M839.8,1088.86c-10.17,1.81-10.82-2.39-8.71-9.1,5.34-17,25.64-26.48,43.9-20.75,5.75,1.8,2.27,4.56,1.2,7C868.81,1082.31,856.2,1090.22,839.8,1088.86Z" transform="translate(-65.81 -163.93)"/><path d="M222.15,796.26c2.75-13.16,2.19-27.42,11.69-38.41,5-5.76,11.36-14.35,18.73-10.1,6,3.48,3.11,13.52.87,20.55-6.68,21-16.1,29.09-31.65,27.62Z" transform="translate(-65.81 -163.93)"/><path d="M157.27,1058.88c-.35,9.21.63,18.75-6.71,26.18-1.89,1.91-4.19,4.93-6.23,1-4.53-8.59-12.56-15.92-9.53-27.44,1.86-7.06,2.42-14.47,3.57-21.72.47-3-.13-7,3.39-7.9,3.06-.77,5.45,2.33,7.86,4.23C158.19,1040,156.91,1049.69,157.27,1058.88Z" transform="translate(-65.81 -163.93)"/><path d="M533.29,324.51c-.41,6.86,1.6,14.85-4.2,21.54-3.65,4.21-6.74,6.73-10.42.05-4.52-8.21-9.07-16.17-7.14-26.29,1.24-6.45,1.41-13.12,1.82-19.7.69-11,6-8.49,11.86-4.12C534.89,303.18,533.17,313.75,533.29,324.51Z" transform="translate(-65.81 -163.93)"/><path d="M395.37,352.85c-13.21-.07-14.48-2-8.17-13.8,6.79-12.69,16.23-22,31.88-21.66,7.14.16,11.13,3.7,8.94,11.34C425.19,338.62,405.61,352.91,395.37,352.85Z" transform="translate(-65.81 -163.93)"/><path d="M763.24,590.67c3.5,0,6.21-.1,8.92,0,7.25.31,11.35,5.34,13.43,11.13,2.42,6.72-3.57,9.41-8.33,12-12.48,6.74-28.53,3.66-36.91-6.53-4.5-5.48-4.26-8.78,2.43-12.37A37.1,37.1,0,0,1,763.24,590.67Z" transform="translate(-65.81 -163.93)"/><path d="M180.7,872.88c-1-6.84,1.22-9.29,8.9-5.75,13.54,6.22,28,29,27.13,43.27-.29,4.55-1.54,6.32-6.45,4.58C195.19,909.65,180.7,889.63,180.7,872.88Z" transform="translate(-65.81 -163.93)"/><path d="M200.77,1058.6c11.28-.59,12.21.8,7.75,11.52-7.34,17.64-17.15,24.72-31.82,23.71-6.76-.47-8.81-3.09-7.14-9.67C173.8,1067.41,183.25,1059.5,200.77,1058.6Z" transform="translate(-65.81 -163.93)"/><path d="M422.67,536.29c-1.4,4.19,1.32,11.39-3.51,13.2-5.29,2-11.1-2.12-15.73-5.76-9.66-7.6-15.39-26.36-11.63-38.16.68-2.15,1.24-7,4.79-4.2,9.91,7.89,19.68,16.2,25.94,27.55C423.51,530.7,422.67,533.49,422.67,536.29Z" transform="translate(-65.81 -163.93)"/><path d="M1087.65,1040c10.34.56,25.89,11.65,28.74,20.32,1.66,5.07,2,10.74-4.55,12.31-6.73,1.63-14,9.62-20.69.33a177.83,177.83,0,0,1-11.4-18.83c-1.91-3.51-6.14-7.23-3.16-11.4C1079.25,1039,1084.38,1040.3,1087.65,1040Z" transform="translate(-65.81 -163.93)"/><path d="M83,1053.83c-6.06.93-7.7-1.09-5.36-7,5-12.56,11.75-23.59,24-30.31,6.2-3.4,12.52-4.94,18,1.07,6,6.57-.71,10.6-3.78,14.84C107.7,1043.74,98,1053,83,1053.83Z" transform="translate(-65.81 -163.93)"/><path d="M841.18,484.75a44.08,44.08,0,0,1-5,23.63c-2.17,4.07-3.84,7.52-9.33,6.64-5.21-.83-8.68-3.24-9.3-8.75-1.47-13.1.32-25.57,7.27-37,2.09-3.45,4.72-6.64,9.15-5.9,5.24.87,6.12,5.4,6.55,9.77C840.89,477,841,480.88,841.18,484.75Z" transform="translate(-65.81 -163.93)"/><path d="M915.13,540.64a6.37,6.37,0,0,1,0,1.16c-1.31,5.38,2.29,14-3.46,15.64-6.29,1.79-11.38-5.35-15.56-10.37-8.21-9.87-8.93-22-9.46-34.08-.26-5.77,2.59-6.14,7.37-5C908.79,511.52,915.7,522,915.13,540.64Z" transform="translate(-65.81 -163.93)"/><path d="M626.74,465.34c.07-11.69-.09-23.46,9.35-32.41,7.23-6.84,11.42-5.91,13,4,2.41,14.84,5.56,30.4-9.06,41.59-3.2,2.45-6.86,6.57-11.23,4.4-4-2-1.6-6.95-2-10.58A59.81,59.81,0,0,1,626.74,465.34Z" transform="translate(-65.81 -163.93)"/><path d="M1101.58,436.87c-5.5-.19-10.7-1.23-13.24-5-3-4.47,2.71-7.17,4.65-10.58,6.77-11.88,16.92-18.55,30.69-19.94,4.26-.44,7.94,0,10.42,3.39,2.34,3.18-.74,5.73-2.15,8.29C1125.06,425.44,1115.58,434.52,1101.58,436.87Z" transform="translate(-65.81 -163.93)"/><path d="M717.48,523.53c-2.05,11.47.55,24.75-9.94,34.38-3.84,3.52-7.89,7-13.41,4.6-5.29-2.29-4.8-7.42-4.57-12.13.64-13.38,4.92-25.12,15.66-33.77,2.68-2.15,5.86-5.4,9.21-4.05C718.8,514.33,717.16,519.24,717.48,523.53Z" transform="translate(-65.81 -163.93)"/><path d="M1151.68,653.39c-2.25-16.15,10.71-28.72,24.5-33.86,4.73-1.76,6.25,0,6.22,4.71-.1,12.57-1.36,24.52-10.36,34.66-4.52,5.08-9,8.74-15.83,7C1148.28,663.81,1153.21,656.73,1151.68,653.39Z" transform="translate(-65.81 -163.93)"/><path d="M973.13,518.88c2.71,0,3.93-.24,5,0,4.8,1.24,11.87-2.48,13.93,4.65,2.24,7.82-2.34,13.34-8.88,17.06-3.67,2.09-7.52,4.54-11.54,5.18-7.91,1.24-20.11,5.11-23-.28-3.69-6.91,4.28-16.28,8.83-23.68C961.47,515.39,968.94,520,973.13,518.88Z" transform="translate(-65.81 -163.93)"/><path d="M1117.2,839.37c-.7,5.54-.45,12.74-6.39,15-6.64,2.53-10.12-4.39-13.49-8.72-9.34-12-9.31-25.72-5.94-39.83,1.1-4.61,3.29-6.27,7.1-2.74C1109,812.83,1116.57,824.2,1117.2,839.37Z" transform="translate(-65.81 -163.93)"/><path d="M860.5,544.1c3,15-7.79,23.58-20.59,30.88-2.9,1.65-5.58,2.78-7.21-1.88-4.55-13,3.53-36.14,15.68-43.49,3.15-1.9,6.53-5.74,10.46-3.28,3.27,2,1.28,6.43,1.62,9.77C860.66,538,860.5,540,860.5,544.1Z" transform="translate(-65.81 -163.93)"/><path d="M891.25,580c.64,8.86-.41,18.15-5.47,27-2.52,4.41-5.31,6-10.07,5.73s-5.21-3.66-6.08-7.11c-4-15.9-2.93-30.72,9.22-43.1,2.35-2.4,4.75-6.1,8.54-4.94,4.7,1.44,3.6,6.24,3.81,9.94S891.25,575.19,891.25,580Z" transform="translate(-65.81 -163.93)"/><path d="M440.12,233.65c-8.89-.9-19.25-2.42-27.77-9.45-4.91-4-7.33-9.31-5.06-15.48,2.1-5.71,7.45-6,12.67-6.09,13.88-.27,23.47,6.22,29.45,20.12C453.51,232.28,452.23,234.11,440.12,233.65Z" transform="translate(-65.81 -163.93)"/><path d="M598.82,488.62c-18.53-.89-33.33-15.76-33.11-32.78.06-4.26,0-7.82,6.22-6.12,15.83,4.34,27.9,13,34,28.73C608.68,485.61,607.35,490,598.82,488.62Z" transform="translate(-65.81 -163.93)"/><path d="M452.75,452.79c.63-13.73,6-24.65,16.63-32.52,7.66-5.65,13.88-2.88,14.34,6.58.78,15.71-7.43,27.38-18.79,37.06-2.12,1.81-5.63,3.83-8.53,1.44C452.35,462,453.52,456.79,452.75,452.79Z" transform="translate(-65.81 -163.93)"/><path d="M254.12,1108.34c16.7.24,31.12,11.73,34.09,25.74,1.46,6.89-.69,8.91-7.48,8.73-14.32-.37-27.19-9.37-33.21-23.3C244,1111.27,244.65,1106.76,254.12,1108.34Z" transform="translate(-65.81 -163.93)"/><path d="M320.73,289.89c1.55-3-3.3-9.94,3.61-10.69,5.8-.63,13.55.08,16.15,6.83,4.75,12.3,8.46,25,12.14,37.7,1.64,5.65-1.53,5.41-5.85,4C329.35,321.94,321.22,310.6,320.73,289.89Z" transform="translate(-65.81 -163.93)"/><path d="M844.06,224.65a36.72,36.72,0,0,1,5.77.38c5.43,1.14,14-1.48,15.57,3.94,1.84,6.3-5.08,11.61-10.09,15.63-11.09,8.9-23.76,7.29-36.37,4-4.42-1.15-4.84-3.81-3-7.9C820.33,231.28,832.38,224.17,844.06,224.65Z" transform="translate(-65.81 -163.93)"/><path d="M1192.94,705.38c-4.8-.6-11.81-.65-14.37-6.2-2.44-5.28,4-8.54,7-12.25,8.4-10.21,16.56-21.38,32.6-14,2.24,1,5.41.64,5.25,4.72C1223.05,688.31,1205.2,705.21,1192.94,705.38Z" transform="translate(-65.81 -163.93)"/><path d="M1014.86,996.08c-4.64-.56-9.68-.71-11.91-5.76-2.05-4.65,1.42-7.92,3.64-11.55,8.68-14.23,22.82-16,37.45-16.77,3.94-.21,5.56,1,4.68,5.42C1046.48,978.69,1025.93,996.35,1014.86,996.08Z" transform="translate(-65.81 -163.93)"/><path d="M867.41,348.69c1.3,7.5-3.18,7.7-9,5.93-10.69-3.27-27.51-31.1-25.4-41.9,1.16-5.94,5.27-4.48,9-3.53C857.11,313,867.55,329.12,867.41,348.69Z" transform="translate(-65.81 -163.93)"/><path d="M265.52,1098.13a30.43,30.43,0,0,1-30-29.8c-.14-4.32,1.5-5.28,5.35-5.39,14-.39,28.45,8.46,33.87,21C280,1096.07,278.39,1098.49,265.52,1098.13Z" transform="translate(-65.81 -163.93)"/><path d="M519,598.93c1.56.07,3.13,0,4.66.25,7.75,1.07,18.67,2,19.65,9.39,1.05,8-8.91,12.49-16.6,15.44-11,4.21-27.87-2.56-33.58-12.67-2.18-3.87.54-4.79,2.59-6.19C502.69,600.34,510.72,599.2,519,598.93Z" transform="translate(-65.81 -163.93)"/><path d="M362.75,582.07c-2.72,0-5.44,0-8.15,0-7,.11-10.66-4.81-12.75-10.13-2.33-6,3.64-7.92,7.4-10.08,10.49-6,21.52-9.35,33.13-3,4.07,2.21,8.36,5,7.88,10.52-.42,4.75-4.47,7.07-8.23,9.13C376,581.77,369.36,581.76,362.75,582.07Z" transform="translate(-65.81 -163.93)"/><path d="M1121.51,904c13-3.89,21.21,5.23,28.18,16.23,2.71,4.27,3.8,10.79-2.92,10.67-13.72-.24-28.56.93-38.87-11.46-3.18-3.82-7.52-8.33-5-13.38,2.14-4.29,7.8-1.41,11.85-2A59.48,59.48,0,0,1,1121.51,904Z" transform="translate(-65.81 -163.93)"/><path d="M1050.63,554.65c1.86,10.88-2.79,18.62-10,25.18-2.4,2.19-3.9,6.95-7.91,5.44-3.3-1.24-3.54-5.59-4.54-8.89-4.63-15.29.52-28.88,7.12-42.28,2.38-4.82,4.79-3.52,7.93-.66C1049.79,539.4,1052.73,546.46,1050.63,554.65Z" transform="translate(-65.81 -163.93)"/><path d="M268.81,326.75c10.91-.61,19.05,4,25.7,11.74,4.29,5,3.53,8.45-3.34,9.36-10.36,1.39-20.74,2.69-31.13,3.74-6.83.69-12.94-2.07-15.26-8.3-2.66-7.11,4.21-9.9,8.85-13.07A22.07,22.07,0,0,1,268.81,326.75Z" transform="translate(-65.81 -163.93)"/><path d="M669,362.56c-11.24.2-30-16.17-31.48-25.66-.71-4.67,3-4.72,5.67-5.72,14.42-5.47,38,9.47,40,25,.5,3.91-1.64,4.88-4.4,5.33C675,362.18,671.12,362.36,669,362.56Z" transform="translate(-65.81 -163.93)"/><path d="M616.75,397.12l-21.4-3.65c-6.72-1.15-6.8-4.91-4.1-10a21.22,21.22,0,0,1,17.33-11.9,34,34,0,0,1,17.08,2.11c5.08,2.12,15.48.49,13.63,8S631.86,398.33,616.75,397.12Z" transform="translate(-65.81 -163.93)"/><path d="M563.65,167.46a19.08,19.08,0,0,1,3.48.28c5.37,1.4,14.12-2.18,15.55,3.83s-5.56,11.34-10.63,15.65c-9.87,8.38-21.78,7.13-33.39,6.6-5.18-.23-4.34-4.3-3.78-7.9C536.87,173.09,547.25,166.4,563.65,167.46Z" transform="translate(-65.81 -163.93)"/><path d="M410.38,617.06a55.64,55.64,0,0,1-5.47,21.73c-2.37,4.88-5.82,8.39-11.66,7.69-6.5-.79-6.39-6.35-6.12-10.72.69-11.18-4.25-23.32,5.12-33.17,3.4-3.58,6.22-8.83,12.19-7s5.26,7.86,5.9,12.71C410.59,610.24,410.38,612.2,410.38,617.06Z" transform="translate(-65.81 -163.93)"/><path d="M209.81,701.24c7.68,16.81,13.65,32.21,7.41,49.36-1.44,3.95-2.48,11.8-7.13,9.92-6.25-2.54-15.93-4.51-15-15.12C196.46,730.12,201.36,716,209.81,701.24Z" transform="translate(-65.81 -163.93)"/><path d="M941.56,448.39c.7-17.22,16.1-32.55,32.26-33.64,4.65-.32,6.22,1,6.1,5.66-.36,13.75-19.43,35.34-33.15,36.68C937.92,458,943.88,450.27,941.56,448.39Z" transform="translate(-65.81 -163.93)"/><path d="M724,561c.29-16.77,9.21-29.87,23-34.7,5.43-1.9,8.71-1.69,8.85,5.51.3,15.29-3.46,28.3-17.89,36.17-3.64,2-7.31,6-11.5,4C721.81,569.74,725,564.33,724,561Z" transform="translate(-65.81 -163.93)"/><path d="M119.18,790.12c.06-5.48,1.11-11.13,6.42-12.81,6.19-1.94,7.81,4.33,10.68,8.39,9.79,13.86,6.41,28,1.42,42.18-1.09,3.08-1.09,8-5.27,8.19-4.6.19-6.21-4.29-6.91-8.14C123.24,815.36,121.27,802.73,119.18,790.12Z" transform="translate(-65.81 -163.93)"/><path d="M412.89,393.57c.23-4.31,0-6.72.55-8.92,1-4-1.78-9.92,2.27-11.68,4.5-2,8.44,3,11.67,5.95,10.75,10,14.27,22.73,12,36.88-1.2,7.51-5.89,10-12.36,4.73C417.91,413.14,408.4,405.73,412.89,393.57Z" transform="translate(-65.81 -163.93)"/><path d="M265.13,1023.81c-.29,4.39-.18,7.16-.73,9.79-.9,4.34,1.61,11-3.3,12.49-5.26,1.6-8.63-4.48-11.38-8.39-9.49-13.5-6.56-28.93-5.64-43.89.16-2.66,2.85-4.63,6-4.53a10.13,10.13,0,0,1,9.35,5.89C264,1004.74,267.12,1014.65,265.13,1023.81Z" transform="translate(-65.81 -163.93)"/><path d="M1177,731.44c15.3,0,31.08,19,27.56,33.19-.54,2.17-1.72,3.09-4,3.38-6.91.91-33.39-16.64-35.4-23.61C1161.81,732.81,1163,731.49,1177,731.44Z" transform="translate(-65.81 -163.93)"/><path d="M413.55,1082.06c1.08,6.2-.73,11-3,15.46-2,4-3.33,9.87-9.14,8.9-4.91-.81-6.86-5.78-8.33-10.37-4.43-13.92-1.6-26.83,5.41-39.11,2-3.51,5.06-6.5,9.35-5.73,4.67.84,3.49,5.39,3.83,8.6C412.47,1067.53,413,1075.27,413.55,1082.06Z" transform="translate(-65.81 -163.93)"/><path d="M840.88,373.48c2.12-4.71-3.15-13.68,3.73-15.69,6.51-1.9,10.65,6.35,15.26,10.81,10.67,10.35,7.31,23.69,7.08,36.21-.1,5.71-4,2.88-6.62,1.91C844.45,400.84,840,393.38,840.88,373.48Z" transform="translate(-65.81 -163.93)"/><path d="M1035.67,422.91c.78-20.5,11-34.19,27-38.07,6.64-1.61,8,.37,8,6.47.08,12.29-15.38,34.29-26.88,37.85C1037.33,431.18,1034,430,1035.67,422.91Z" transform="translate(-65.81 -163.93)"/><path d="M982.72,564c18.77.35,24.88,5.47,28.06,22.3,1.27,6.7-.56,9.38-7.42,9.3-13-.16-23.23-4.63-29.6-16.63C967,566.3,968.45,563.73,982.72,564Z" transform="translate(-65.81 -163.93)"/><path d="M192.81,803c-9,0-30.91-18.32-32-26.13-1-7,7.32-12.8,15.32-10.63,9.53,2.59,25.3,20.65,26.35,30.6C203.46,806.08,195.75,801.31,192.81,803Z" transform="translate(-65.81 -163.93)"/><path d="M328.35,986.91c-10.16.05-18.32.64-25.16-5.44-2.93-2.61-3.45-4.24-.88-7.55,11.24-14.41,34-16.23,46.59-3.76,6.07,6,5.66,10.1-2,14.09C340.21,987.71,333.2,986.36,328.35,986.91Z" transform="translate(-65.81 -163.93)"/><path d="M1096.69,626.09c4.6-.34,7.15,1.39,9.54,3.42,8.73,7.41,14.76,16.8,19.48,27.06,2.12,4.59,1.74,9.26-2.52,12.59-4,3.07-8.17,1.83-11.84-.71-10.95-7.61-17.3-18.7-21.38-30.92C1088,631.54,1091.41,627.19,1096.69,626.09Z" transform="translate(-65.81 -163.93)"/><path d="M1024.66,466.52c17.68.05,28.2,6.59,31.4,19.74.67,2.74,2.4,5.93-2.14,7.67-11.23,4.31-34.12-3-40.75-13.47-2.21-3.49-5.93-7.37-3.82-11.52,2-3.88,7-1.85,10.67-2.37A34.17,34.17,0,0,1,1024.66,466.52Z" transform="translate(-65.81 -163.93)"/><path d="M117.6,1051.45c13.43,20.33,9.17,38.37-1.25,56.07-2.19,3.71-5.95,4.77-8.48,1.09-4.35-6.32-9.75-14-7.39-21.17C104.52,1075.21,111.47,1064,117.6,1051.45Z" transform="translate(-65.81 -163.93)"/><path d="M484.85,537.11c15.55.32,25.72,8.79,28.69,23.4,1.08,5.31-.22,8-5.86,8.75-13.39,1.65-27.26-5.72-32.51-17.54S471.91,536.85,484.85,537.11Z" transform="translate(-65.81 -163.93)"/><path d="M328.38,180.21c-.17,14.78-5.18,27-17.63,35.89-2.88,2.05-5.14,2.87-8.42,1.67-3.92-1.43-5-4.2-5.15-8.09-.37-8.46,4.59-14.58,8.72-21.07q5.31-8.33,11-16.39c2-2.84,4.34-6.31,8.24-5.46,4.78,1.05,2.59,5.68,3.17,8.81A25.64,25.64,0,0,1,328.38,180.21Z" transform="translate(-65.81 -163.93)"/><path d="M219.86,1092.83c3.85,24.69,8.4,46.07-12.57,64a117.79,117.79,0,0,1-6.39-43.55C201.2,1105,212.15,1101.66,219.86,1092.83Z" transform="translate(-65.81 -163.93)"/><path d="M177.61,810.65c-.89,11.72-1.43,21.34-2.42,30.91a25.4,25.4,0,0,1-4.67,13c-3.8,5-8.17,10.44-15.13,8.47-7.6-2.15-5.63-9.43-5.12-14.87C151.85,831.32,159,818.14,177.61,810.65Z" transform="translate(-65.81 -163.93)"/><path d="M334.37,507.08c16.85.14,25.76,6.68,30.49,21.09,2.18,6.65,1.17,10.16-6.64,10.74-14.89,1.1-33.68-12.19-34.92-26.75C322.49,502.57,331.56,509.71,334.37,507.08Z" transform="translate(-65.81 -163.93)"/><path d="M1226.26,714.22a46.43,46.43,0,0,1,5.78,0c6.77.88,15.28.56,16,9.66s-6.49,13.59-14.27,15.92a24.23,24.23,0,0,1-28.87-12.67c-3.62-7.64-.78-10.8,6.4-11.86,5-.74,10-1,15-1.44Z" transform="translate(-65.81 -163.93)"/><path d="M304.2,709.91c-11,.07-12.37-2-8.45-12.32,4.82-12.7,19.36-22.42,32.8-22.38,4.85,0,7.13.95,6.36,6.53C332.75,697.52,319.59,709.81,304.2,709.91Z" transform="translate(-65.81 -163.93)"/><path d="M327.53,842.06c-11,2.07-11.16-2.87-7.6-10.92,6.79-15.37,20.08-24.79,34.8-24.71,7.47,0,9.34,2.83,5.11,9-5.28,7.65-10.86,15.08-16.31,22.59C339.29,843.83,332.82,841,327.53,842.06Z" transform="translate(-65.81 -163.93)"/><path d="M830.74,449.13c-8-3.62-16.84-6.81-24.79-11.44-5.42-3.16-2.05-7.4,1.47-10.21,11.85-9.46,30-9.15,42.52.14,4.13,3.06,5.12,5.6.69,8.84C844.48,441,839.41,447.14,830.74,449.13Z" transform="translate(-65.81 -163.93)"/><path d="M479.31,286.14c.45-16.38,11.17-27.85,26.51-29.86,6.85-.9,9,1.51,8.58,8.22-1,15-10.6,26.19-25.34,29.32C481.53,295.42,477.75,293.62,479.31,286.14Z" transform="translate(-65.81 -163.93)"/><path d="M758.89,1009.64c12.63-.26,23.81,1.84,29.53,15.34,2.36,5.56,1,7.1-4.49,8.53-13.61,3.53-25.85,2.65-36-8.22-3-3.24-8.28-5.5-5.82-11.25,2-4.79,6.76-4.37,11-4.4Z" transform="translate(-65.81 -163.93)"/><path d="M764,272.67c-.85,3.83,1.44,10-3.78,11.93-5,1.84-9.85-1.45-13.52-5.1-10.33-10.29-10.65-23.71-10.72-37,0-5.27,3.81-4.67,7.55-3.5C756.85,243.22,764,254.73,764,272.67Z" transform="translate(-65.81 -163.93)"/><path d="M879.37,1108.86c-.61,15.26-14.38,32.19-28.28,36.07-4.75,1.33-6.26-.16-6.77-4.69-1.56-13.69,16.84-39.12,30.14-40.52C883.46,1098.77,877.17,1106.54,879.37,1108.86Z" transform="translate(-65.81 -163.93)"/><path d="M774,215.52a68.74,68.74,0,0,1,.64-7.82c1-5.56,3.39-11.69,9-12.46s5.58,6.14,7.48,10.06c5.53,11.42,9.53,23,4.08,35.71-1.53,3.55-2.32,8.11-6.84,8.53-4.95.48-7.47-3.69-9.3-7.56C775.09,233.74,774.76,224.73,774,215.52Z" transform="translate(-65.81 -163.93)"/><path d="M1004.5,833.76c2.23,13-5.41,22.54-17,29.68-5.7,3.51-10.65,3.58-10.19-5.34.71-13.67,2.12-27.14,14-36.55,3-2.39,6.46-5.74,10.22-4.44,4.46,1.55,2.67,6.56,3,10.22C1004.62,828.86,1004.5,830.41,1004.5,833.76Z" transform="translate(-65.81 -163.93)"/><path d="M102,846.41c11.22-.22,28.28,15.94,28.83,25.91.14,2.59-1.29,3.11-3.14,3.93C112.52,883,90.18,869,88.54,852.12c-.38-4,1.51-4.81,4.3-5.16C96.27,846.53,99.76,846.53,102,846.41Z" transform="translate(-65.81 -163.93)"/><path d="M624.18,250.41c.66-13.37,14.56-30.83,27.54-34.53,6.71-1.91,10.47-.41,9.67,7.67C660.05,237,643,255.92,629.57,258.32,624.54,259.22,623.8,258.12,624.18,250.41Z" transform="translate(-65.81 -163.93)"/><path d="M924,723.17c17.44.46,27.16,8.67,31.08,24.9,1,4.11,0,5.37-4,6.12-17.54,3.24-35.73-7.91-38.35-25.15C911.07,717.68,921.28,726.17,924,723.17Z" transform="translate(-65.81 -163.93)"/><path d="M221.52,869.35c-18.42,0-20.6-1.66-28-18.41-2.46-5.56-1.23-7.27,4.63-8.4,14.46-2.78,26,1.84,35.72,12.26,2.93,3.15,6.63,6.2,4.83,11s-6.52,3.1-10.18,3.47C226.21,869.53,223.86,869.34,221.52,869.35Z" transform="translate(-65.81 -163.93)"/><path d="M807.87,579.78c-15-10.46-30.62-19-29.77-40.67.29-7.31,1-9.92,8.85-6.22C806.21,541.91,812.34,554.44,807.87,579.78Z" transform="translate(-65.81 -163.93)"/><path d="M116,652.08c5.52,20,3.47,36.47-14.18,48.21-2.52,1.67-4.73,5.14-7.9,4.05-3.63-1.26-1.72-5.39-2.36-8.23C86.76,674.83,99.87,663.31,116,652.08Z" transform="translate(-65.81 -163.93)"/><path d="M1116.56,592.77c0-1.94-.06-3.89,0-5.82.18-4.71.22-10.75,5-12,5.2-1.38,5.65,5.22,7.56,8.57,4,7.08,7.42,14.51,11.07,21.8.52,1,1.14,2.05,1.56,3.13,2.87,7.49,2.51,16.51-3.82,19.8-5.85,3-11.79-4.14-15.48-9.64C1117.3,610.84,1117.13,601.72,1116.56,592.77Z" transform="translate(-65.81 -163.93)"/><path d="M414.61,786c-.18,1.51.1,4.47-.95,6.84-2.15,4.87-4.11,11.88-9.64,12.07-6.63.23-7-7.24-8.22-12.35-2.71-11.73-5.06-23.54-7.43-35.34-.45-2.23-1.24-5.19.85-6.56,2.45-1.62,5.22-.38,7.43,1.53C406.66,760.87,414.38,770.77,414.61,786Z" transform="translate(-65.81 -163.93)"/><path d="M750.05,1059.08c5.29,1.56,14.1-3.8,16.19,3.25,2.29,7.71-6.54,11.33-11.91,15.4-9.61,7.28-19.88,9.26-31.54,4.13-4.32-1.89-4.19-3.14-2.43-6.5C726.61,1063.41,734.78,1055.06,750.05,1059.08Z" transform="translate(-65.81 -163.93)"/><path d="M623.3,299.3c-8-.41-17.5,1.75-23.3-7.8-3.89-6.39-3.28-11,4.74-12.84,8.81-2,17.76-1.8,26.66-1,8.27.7,15.16,5.44,15,13.5-.16,8.74-8.78,8-15.38,8.17C628.7,299.35,626.37,299.3,623.3,299.3Z" transform="translate(-65.81 -163.93)"/><path d="M370.07,1049.44c6.67-.94,8.15,2.1,6.1,8.79-3.3,10.76-24.86,28.49-36.17,29.09-5.24.27-3.71-3.87-3.72-6.43C336.23,1066,353.83,1049.42,370.07,1049.44Z" transform="translate(-65.81 -163.93)"/><path d="M284.68,253.82c-23.86-4.42-34.59-16.16-34-35.83.21-7,2-7.22,8.27-4.9C277.73,220,283.83,234.55,284.68,253.82Z" transform="translate(-65.81 -163.93)"/><path d="M923.1,411.22c-.39,3.07,2.31,8.42-1.92,10.86-4.89,2.84-9.73-.77-13.83-3.53-7.86-5.29-13.64-29.73-9.23-37.65,2.11-3.79,5.36-2.38,8.15-1.54C922,384.07,922.52,397.19,923.1,411.22Z" transform="translate(-65.81 -163.93)"/><path d="M1010.59,344.07c-3.53-.6-9.14,1.79-11.33-1.94-2.3-3.92,2.45-7.62,4.55-11.09,9.16-15.05,20.72-19.14,36.85-13.76,3.86,1.28,4.91,3.08,3.22,6.78C1039.64,333.32,1022,344.16,1010.59,344.07Z" transform="translate(-65.81 -163.93)"/><path d="M423.89,271.58c2.05,12.27-4.22,23-17.9,30-5.42,2.79-7.55,2.36-7.92-4.09-.94-16,2.71-30,16.5-39.76,2.67-1.89,5.29-5.78,8.85-3.66,2.89,1.73,1.06,5.7,1.07,8.68C424.5,264.66,424.25,266.59,423.89,271.58Z" transform="translate(-65.81 -163.93)"/><path d="M115.94,986.84c-12.19.36-13-1.16-7.35-12.05,7.07-13.57,18.36-20.66,33.33-22.23,3.1-.33,6.38-.83,5.74,4.42C145.85,972,130.74,986.41,115.94,986.84Z" transform="translate(-65.81 -163.93)"/><path d="M243.85,714.6c-6.57.74-8.21-2.17-6.14-8.92,3.41-11,21.54-26.85,33-28.22,4.32-.52,6.45.4,6.07,5.47C275.6,698.19,259.16,714.52,243.85,714.6Z" transform="translate(-65.81 -163.93)"/><path d="M896.9,357.62c-7.5,1.4-9.35-1.62-6.69-9.54,4.84-14.44,17.74-23.72,32.68-22.84,5.73.33,7.4,2.58,5.65,8.23A34.05,34.05,0,0,1,896.9,357.62Z" transform="translate(-65.81 -163.93)"/><path d="M593.29,507.09c13.48.75,27.19,16.39,26.68,28.91-.19,4.49-2.18,6-6.48,6.12-11.71.44-27.3-12.73-28.93-24.63C583.52,509.82,585.34,505.09,593.29,507.09Z" transform="translate(-65.81 -163.93)"/><path d="M1105.17,973.15c3.92,14.63-9.05,20.42-16.75,28.91-3.51,3.87-6-.47-5.94-3.33.33-17.61,6.09-34.2,10.73-50.94,1.25-4.53,4.17-1.08,5.86.81C1105.26,955.52,1106.06,963.89,1105.17,973.15Z" transform="translate(-65.81 -163.93)"/><path d="M764.79,483.8c10.72-.23,33.18,18.76,34.54,28.43.77,5.44-1.17,8-6.88,7.85-9.33-.18-34.5-21.26-35.65-30.73C756,482.46,762,484.75,764.79,483.8Z" transform="translate(-65.81 -163.93)"/><path d="M763.52,445.37c14.33.33,30,15.94,30.4,30.08.08,2.58-.73,3.45-3,3.73-6.65.84-33.74-14-36.71-20.13C748.64,447.56,750.33,445.07,763.52,445.37Z" transform="translate(-65.81 -163.93)"/><path d="M1181.27,853c0,2.48-1.8,3.41-3.55,4.1-12.24,4.82-24.48,9.65-36.79,14.3-4.42,1.67-7.87,1-7.32-4.95,1.45-15.49,24.2-29.2,38.12-22.94C1176.08,845.49,1179.55,848.48,1181.27,853Z" transform="translate(-65.81 -163.93)"/><path d="M958.2,373.54c-.06,7.6-3.86,12.66-6.71,17.82-15.6,28.23-22.88,58-17.81,90.28.49,3.07,1.53,6.38-3.16,7.09-3.41.51-4.89-1.07-5.06-4.49-1.86-38.68.88-76.12,28.43-107A51.92,51.92,0,0,1,958.2,373.54Z" transform="translate(-65.81 -163.93)"/><path d="M351.85,938.07c23.41-5.18,33.09-1,49,20.77C380.88,968.78,369.48,964.1,351.85,938.07Z" transform="translate(-65.81 -163.93)"/><path d="M1039,873.49c-5.66-2.07-15.76,2-16.73-7.31s7.1-14,15.6-15.74a53.81,53.81,0,0,1,14.9-.53c4.41.34,10.3-.13,11.65,5.41,1.32,5.37-2.91,9.3-6.54,12.76C1052.67,873,1045.89,872.8,1039,873.49Z" transform="translate(-65.81 -163.93)"/><path d="M567,264.19c-1.44,7.71,1.67,19.34-6.35,21.76-5.64,1.71-9.06-9.94-13.17-15.81-4.35-6.22-2.39-25.52,2.44-30.46,2.85-2.92,5-1,6.94.82C563.84,246.78,568,254.37,567,264.19Z" transform="translate(-65.81 -163.93)"/><path d="M493.11,1039.92c13.79,1.16,24,3.39,30.17,14.31,4.26,7.54,1.42,11.44-5.9,11.45-10.92,0-21.65-2.31-28.91-11.62-2.33-3-7.31-6.07-4.31-10.73C486.67,1039.44,491.55,1039.82,493.11,1039.92Z" transform="translate(-65.81 -163.93)"/><path d="M209.81,678.73c-1.15-.16-3.09-.3-5-.71-4.39-.94-11-.45-11.57-5.55-.63-5.78,3.62-11.18,9.29-13.52,8.49-3.5,17.67-3,26.37-1.14,7.11,1.52,8,9.1,2.38,14.53C227.47,676.05,218.49,678.82,209.81,678.73Z" transform="translate(-65.81 -163.93)"/><path d="M285.74,646.08c.38,5.12-2.34,6.43-7.24,5.6C266,649.58,255.31,636.3,255,623.2c-.12-6,3.07-6.08,7.37-5.76C276.39,618.48,286.82,631.09,285.74,646.08Z" transform="translate(-65.81 -163.93)"/><path d="M1018.07,646.73c-11.22.32-29.35-17.51-29.47-28.81-.06-5.58,3.23-6.35,7.6-5.88,10.27,1.1,27.12,19.71,27.81,30.14C1024.36,647.4,1021,646.49,1018.07,646.73Z" transform="translate(-65.81 -163.93)"/><path d="M712.08,367.06c-6.41-17.62-3.46-32.66,6.67-46.65,1.09-1.51,2.13-3.6,4.37-3.2,2.75.48,3.18,3.16,3.56,5.3C729.69,339.27,728.4,354.79,712.08,367.06Z" transform="translate(-65.81 -163.93)"/><path d="M425.18,461.65c-12.13-1-24.23-12.4-26.07-24.57-.28-1.84-1.37-4.37,1.23-4.72,5.23-.7,11.26-2.64,15.5,1.48,6.07,5.87,11.75,12.35,15.22,20.26C433.9,460.59,432.52,462.23,425.18,461.65Z" transform="translate(-65.81 -163.93)"/><path d="M881.77,1080.4c1.55-28.41-2-55.25-5.6-83C890.41,1008.85,893.69,1058.91,881.77,1080.4Z" transform="translate(-65.81 -163.93)"/><path d="M305,332.48c26.7-5.34,35.21,17.07,49,31.34,1.58,1.65,1.62,5,1.85,7.66.21,2.31-.17,5.07-2.74,5.91-3,1-3.61-2-4.81-3.87-3.19-4.88-6.5-9.69-9.52-14.68-7.47-12.33-16.72-21.54-32.69-20-3.36.32-6.72-.72-6.69-4.69C299.42,329.42,303.24,332.14,305,332.48Z" transform="translate(-65.81 -163.93)"/><path d="M1188.08,719.42c-8.11,0-14.26.16-20.41,0-7.44-.25-14.74-.46-21.14,4.46-1.31,1-4.21,1.88-5,1.2-2-1.72-.71-4.28.15-6.41a10,10,0,0,1,1.89-2.92C1151.93,706.49,1178.26,707.58,1188.08,719.42Z" transform="translate(-65.81 -163.93)"/><path d="M556.85,555.57c-.65,3.42-1.33,7.6-2.28,11.73-.73,3.2-.69,8-4.87,7.94-5.44-.14-6.05-5.25-6-9.58A85.13,85.13,0,0,1,544.87,553c.67-4.19,1.5-9.39,7.14-8.6S556.39,550.71,556.85,555.57Z" transform="translate(-65.81 -163.93)"/><path d="M989.59,873.05l27.75-24.36C1017.5,860.52,1005.54,871.42,989.59,873.05Z" transform="translate(-65.81 -163.93)"/><path d="M571.27,750.84c-1.14,3.39,1.35,10.09-4.75,9.42-5.67-.63-6.08-7.13-6-12.23.08-4.12-.21-10.72,4.4-10.41C571.83,738.07,570.22,745.58,571.27,750.84Z" transform="translate(-65.81 -163.93)"/><path d="M542.71,740.05c4.91,2.35,11.28,3.24,11.41,10.85,0,2.69.29,6.53-3.12,6.24-6.24-.54-10.37-4.6-11.44-11C539.16,743.78,538.41,740.59,542.71,740.05Z" transform="translate(-65.81 -163.93)"/><path d="M611.46,263.37c-3.75,5.79-8.67,9.79-17.52,14.06C598.33,267.5,603.32,263.38,611.46,263.37Z" transform="translate(-65.81 -163.93)"/></svg>
